<?xml version="1.0" standalone="no"?>
<!DOCTYPE svg PUBLIC "-//W3C//DTD SVG 20010904//EN"
 "http://www.w3.org/TR/2001/REC-SVG-20010904/DTD/svg10.dtd">
<svg version="1.0" xmlns="http://www.w3.org/2000/svg"
 width="700.000000pt" height="700.000000pt" viewBox="0 0 700.000000 700.000000"
 preserveAspectRatio="xMidYMid meet">
<metadata>
Created by potrace 1.14, written by Peter Selinger 2001-2017
</metadata>
<g transform="translate(0.000000,700.000000) scale(0.100000,-0.100000)"
fill="#000000" stroke="none">
<path d="M1959 4934 l-1544 -1544 1305 -1305 c717 -717 1306 -1302 1308 -1300
3 2 4 164 4 358 l-1 354 -952 952 c-523 523 -949 955 -945 959 3 4 538 539
1188 1189 l1181 1182 1188 -1187 1188 -1187 -955 -955 -954 -955 2 -360 3
-360 1307 1307 1308 1308 -1544 1544 -1543 1544 -1544 -1544z"/>
<path d="M3004 3962 c-274 -275 -507 -508 -517 -519 -17 -20 -7 -31 499 -537
l517 -516 513 512 c283 282 514 518 514 523 0 6 -231 241 -514 523 l-513 513
-499 -499z"/>
</g>
</svg>
